Coordinates
version=1
nRows=9
nColumns=32
inDegrees=yes

Units are S.I. units (second, meters, Newtons, ...)
If the header above contains a line with 'inDegrees', this indicates whether rotational values are in degrees (yes) or radians (no).

endheader
time	pelvis_tilt	pelvis_list	pelvis_rotation	pelvis_tx	pelvis_ty	pelvis_tz	hip_flexion_r	hip_adduction_r	hip_rotation_r	knee_angle_r	knee_adduction_r	med_cond_adduction_r	lat_cond_adduction_r	patella_r_constrained_knee_angle	ankle_angle_r	subtalar_angle_r	mtp_angle_r	hip_flexion_l	hip_adduction_l	hip_rotation_l	knee_angle_l	knee_adduction_l	med_cond_adduction_l	lat_cond_adduction_l	patella_l_constrained_knee_angle	ankle_angle_l	subtalar_angle_l	mtp_angle_l	lumbar_extension	lumbar_bending	lumbar_rotation
      1.77000000	     -9.40140122	     -3.12278692	     -1.72242620	      0.16432649	      0.51864817	     -1.20824975	     87.06614972	    -43.47572132	     -6.69919043	   -113.24360576	     -9.40492968	     -0.00000000	     -0.00000000	     -1.97647378	     28.86932043	     16.57245931	      0.00000000	     97.20342692	    -47.75985040	      4.35383162	   -113.10219415	     -9.61501722	     -0.00000000	     -0.00000000	     -1.97400568	     26.22861873	     19.49284965	     -0.00000000	    -30.01835649	      3.75778812	     -1.24418755
      1.77500000	     -9.35675782	     -2.99539549	     -1.46750762	      0.16439458	      0.51678451	     -1.20881752	     87.51640905	    -43.89153053	     -6.22261317	   -113.55170754	     -9.40735234	     -0.00000000	     -0.00000000	     -1.98185117	     28.91465982	     16.97146892	     -0.00000000	     97.28741827	    -47.45025363	      4.31189215	   -113.39623855	     -9.62144446	     -0.00000000	      0.00000000	     -1.97913772	     26.23636626	     19.48195327	     -0.00000000	    -30.10478413	      3.71737732	     -1.59873782
      1.78000000	     -9.16185016	     -3.04195610	     -1.79298776	      0.16440285	      0.51557467	     -1.20822986	     87.52138496	    -43.51500067	     -6.19183990	   -113.77602427	     -9.44397374	      0.00000000	      0.00000000	     -1.98576623	     28.91862304	     16.57975014	     -0.00000000	     97.48485541	    -47.89433350	      4.65592950	   -113.63757033	     -9.63537206	     -0.00000000	     -0.00000000	     -1.98334976	     26.35843070	     19.49060004	     -0.00000000	    -30.44455059	      3.69534429	     -1.05154428
      1.78500000	     -9.06881282	     -3.27203758	     -1.71585570	      0.16447793	      0.51389707	     -1.20873946	     87.44514314	    -43.66473750	     -6.36586189	   -114.01762368	     -9.46553573	     -0.00000000	     -0.00000000	     -1.98998294	     28.95041179	     16.57557098	     -0.00000000	     98.01893372	    -47.76799260	      5.27186109	   -113.95336921	     -9.64032319	      0.00000000	      0.00000000	     -1.98886149	     26.42266241	     19.48853912	      0.00000000	    -30.61652380	      3.98017372	     -1.11849483
      1.79000000	     -8.95936875	     -3.40582139	     -1.68623491	      0.16455914	      0.51226516	     -1.20903486	     87.47073778	    -43.76449362	     -6.39388614	   -114.26264082	     -9.48604165	     -0.00000000	     -0.00000000	     -1.99425929	     28.97519958	     16.57043462	      0.00000000	     98.41474080	    -47.72089757	      5.72845930	   -114.25054486	     -9.64565978	      0.00000000	      0.00000000	     -1.99404818	     26.47297719	     19.48638455	      0.00000000	    -30.80454464	      4.11324901	     -1.18759870
      1.79500000	     -8.87930366	     -3.18914908	     -1.77810771	      0.16460179	      0.51057611	     -1.20875544	     87.99447489	    -43.71154340	     -5.81102946	   -114.57421810	     -9.49290780	      0.00000000	      0.00000000	     -1.99969734	     28.98577177	     16.55692646	     -0.00000000	     98.37469558	    -47.85312624	      5.61139746	   -114.51135057	     -9.65421059	      0.00000000	      0.00000000	     -1.99860010	     26.58068971	     19.48389403	     -0.00000000	    -30.94362954	      3.90762004	     -0.97622692
      1.80000000	     -8.77481945	     -3.12246272	     -1.80465075	      0.16464995	      0.50891698	     -1.20878443	     88.29484688	    -43.74377481	     -5.48224164	   -114.84652490	     -9.50674243	     -0.00000000	     -0.00000000	     -2.00444999	     29.00684288	     16.56454928	     -0.00000000	     98.50567316	    -47.88111074	      5.73604039	   -114.79134829	     -9.66272417	      0.00000000	      0.00000000	     -2.00348698	     26.65648613	     19.47981044	      0.00000000	    -31.10884953	      3.72906088	     -1.10579181
      1.80500000	     -8.69412949	     -3.05098545	     -1.83884455	      0.16465384	      0.50717120	     -1.20882229	     88.64377980	    -43.74728454	     -5.11854385	   -115.11816074	     -9.51289732	     -0.00000000	      0.00000000	     -2.00919093	     29.02862764	     16.56219754	     -0.00000000	     98.66176534	    -47.90174177	      5.87339365	   -115.08089469	     -9.67017496	      0.00000000	      0.00000000	     -2.00854052	     26.73598426	     19.47492525	      0.00000000	    -31.23934228	      3.65256700	     -1.06476731
      1.81000000	     -8.55846653	     -3.26456548	     -1.80701721	      0.16480057	      0.50562977	     -1.20918315	     88.52457234	    -43.85146647	     -5.29201549	   -115.36805520	     -9.53828516	      0.00000000	      0.00000000	     -2.01355241	     29.04821701	     16.52199500	      0.00000000	     99.11125404	    -47.83168363	      6.46095783	   -115.37308069	     -9.67437725	      0.00000000	      0.00000000	     -2.01364013	     26.81035666	     19.47481086	      0.00000000	    -31.45808824	      3.99695347	     -0.89893926
